REM DIRINDEX 1\2,1\3,1\4
REM DIRNAME cjc141,folder01,folder02,folder03
TITLE ""
FILE "Track25.mp3" MP3
  TRACK 01 AUDIO
    TITLE "4:cjc141_137"
    INDEX 01 00:00:00
  TRACK 02 AUDIO
    TITLE "2:cjc141_138"
    INDEX 01 00:01:73
  TRACK 03 AUDIO
    TITLE "0:"
    INDEX 01 00:14:49
  TRACK 04 AUDIO
    TITLE "3:cjc141_139"
    INDEX 01 00:16:26
  TRACK 05 AUDIO
    TITLE "0:"
    INDEX 01 00:28:15
